<svg width="13" height="18" fill="none" xmlns="http://www.w3.org/2000/svg"><path d="M6.334 0c-3.309 0-6 2.692-6 6 0 .994.248 1.978.72 2.852l4.951 8.955a.375.375 0 00.657 0l4.953-8.958A6.01 6.01 0 0012.334 6c0-3.308-2.692-6-6-6zm4.623 8.489L6.334 16.85 1.712 8.492A5.257 5.257 0 011.084 6 5.256 5.256 0 016.334.75 5.256 5.256 0 0111.584 6a5.26 5.26 0 01-.627 2.489z" fill="#EAEAEA"/><path d="M6.333 3c-1.654 0-3 1.346-3 3 0 1.655 1.346 3 3 3 1.655 0 3-1.345 3-3 0-1.654-1.345-3-3-3zm0 5.25A2.253 2.253 0 014.083 6c0-1.24 1.01-2.25 2.25-2.25 1.241 0 2.25 1.01 2.25 2.25a2.252 2.252 0 01-2.25 2.25z" fill="#EAEAEA"/></svg>