<svg width="18" height="18" fill="none" xmlns="http://www.w3.org/2000/svg"><path d="M17.528 13.887l-3.643-2.43a1.063 1.063 0 00-1.424.232l-1.062 1.364a.454.454 0 01-.581.123l-.202-.111c-.67-.365-1.502-.82-3.18-2.498C5.76 8.89 5.304 8.056 4.94 7.387l-.11-.2a.454.454 0 01.12-.585l1.363-1.06c.436-.342.537-.962.231-1.424L4.113.474a1.058 1.058 0 00-1.425-.32l-1.524.914c-.478.282-.83.738-.98 1.272-.548 2-.136 5.449 4.946 10.531 4.043 4.043 7.052 5.13 9.12 5.13a5.32 5.32 0 001.41-.184 2.15 2.15 0 001.272-.98l.916-1.523a1.058 1.058 0 00-.32-1.427zm-.196 1.12l-.914 1.523c-.202.345-.53.6-.915.709-1.846.506-5.07.087-9.948-4.792C.675 7.568.256 4.345.763 2.499c.11-.386.364-.714.71-.916L2.996.669a.459.459 0 01.62.14l1.319 1.98 1.108 1.662c.132.2.089.47-.1.618l-1.364 1.06A1.05 1.05 0 004.3 7.478l.108.197c.383.703.86 1.578 2.6 3.318 1.74 1.74 2.614 2.216 3.317 2.6l.197.108a1.05 1.05 0 001.348-.278l1.06-1.364a.462.462 0 01.619-.1l3.642 2.43a.459.459 0 01.14.618zM10.2 3.002A5.105 5.105 0 0115.299 8.1a.3.3 0 10.6 0 5.705 5.705 0 00-5.7-5.7.3.3 0 000 .6z" fill="#EAEAEA"/><path d="M10.2 4.802a3.304 3.304 0 013.3 3.3.3.3 0 10.599 0 3.904 3.904 0 00-3.9-3.9.3.3 0 000 .6z" fill="#EAEAEA"/><path d="M10.2 6.601a1.502 1.502 0 011.5 1.5.3.3 0 00.6 0 2.102 2.102 0 00-2.1-2.1.3.3 0 000 .6z" fill="#EAEAEA"/></svg>