<svg width="64" height="64" fill="none" xmlns="http://www.w3.org/2000/svg"><path d="M32.67 40.275c0 .738-.096 1.417-.287 2.037a6.009 6.009 0 01-.807 1.709c-.346.52-.775.989-1.285 1.408-.51.429-1.09.82-1.736 1.176a2.795 2.795 0 01-.575.232c-.21.064-.428.119-.656.164a5.957 5.957 0 01-.67.096 4.984 4.984 0 01-.615.041 5.546 5.546 0 01-2.092-.396 6.608 6.608 0 01-1.832-1.121l2.297-2.024c.137.274.324.556.56.848.238.3.506.57.807.806.301.247.616.447.944.602.337.164.67.246.998.246.228 0 .433-.036.615-.11a2.03 2.03 0 00.807-.56c.2-.228.35-.492.45-.793a3.45 3.45 0 00.206-.93c.027-.328.04-.651.04-.97V36.05a11.014 11.014 0 01-.724 1.942c-.3.61-.674 1.153-1.12 1.627a5.27 5.27 0 01-1.573 1.12c-.593.283-1.272.425-2.037.425-.584 0-1.085-.11-1.504-.329a3.03 3.03 0 01-1.04-.875 3.657 3.657 0 01-.6-1.257 5.918 5.918 0 01-.192-1.518V24.511a2.75 2.75 0 00-.055-.547 1.318 1.318 0 00-.191-.478.98.98 0 00-.342-.356.986.986 0 00-.533-.136c-.31 0-.606.09-.889.273a2.744 2.744 0 00-.697.629l-.451-.396c.136-.265.305-.52.506-.766a4.32 4.32 0 01.697-.656c.264-.192.542-.342.834-.451.291-.119.592-.178.902-.178.501 0 .943.095 1.326.287.383.191.702.451.957.78.256.318.447.687.575 1.107.127.419.19.86.19 1.326v11.21c0 .338.006.707.015 1.108.009.401.063.78.164 1.135.1.346.273.638.52.875.245.237.6.355 1.066.355.52 0 .98-.155 1.38-.465.41-.31.77-.71 1.08-1.203a8.107 8.107 0 00.807-1.695 16.06 16.06 0 00.533-1.887 17.92 17.92 0 00.301-1.79 13.48 13.48 0 00.096-1.45v-8.928l2.83-1.011v19.072zm8.012.137l-2.83 1.011V21.845l2.83-1.011v19.578z" fill="#97DB4F" fill-opacity=".8"/><circle cx="32" cy="32" r="31.5" stroke="#97DB4F" stroke-opacity=".8"/></svg>